<svg xmlns="http://www.w3.org/2000/svg" viewBox="0 0 16 16">
    <path d="M15.33,6.67H.67A.67.67,0,0,1,0,6V.67A.67.67,0,0,1,.67,0H15.33A.67.67,0,0,1,16,.67V6A.67.67,0,0,1,15.33,6.67Zm-14-1.33H14.67v-4H1.33Zm14,9.33H.67A.67.67,0,0,1,0,14V8.67A.67.67,0,0,1,.67,8H15.33a.67.67,0,0,1,.67.67V14A.67.67,0,0,1,15.33,14.67Zm-14-1.33H14.67v-4H1.33Zm5.33-10A.67.67,0,0,0,6,2.67H3.33A.67.67,0,0,0,3.33,4H6A.67.67,0,0,0,6.67,3.33Zm0,8A.67.67,0,0,0,6,10.67H3.33a.67.67,0,0,0,0,1.33H6A.67.67,0,0,0,6.67,11.33Zm6-8.67a.67.67,0,1,1-.67.67A.67.67,0,0,1,12.67,2.67Zm0,8a.67.67,0,1,1-.67.67A.67.67,0,0,1,12.67,10.67Z"/>
</svg>
